<svg width="42" height="42" viewBox="0 0 42 42" fill="none" xmlns="http://www.w3.org/2000/svg">
<path d="M20.8831 41.1426C32.0721 41.1426 41.1426 32.0721 41.1426 20.8831C41.1426 9.69412 32.0721 0.623642 20.8831 0.623642C9.69407 0.623642 0.623589 9.69412 0.623589 20.8831C0.623589 32.0721 9.69407 41.1426 20.8831 41.1426Z" fill="white"/>
<path d="M13.4454 17.1596C13.4454 17.1596 14.6824 18.1167 14.6241 19.3308C14.5659 20.5449 13.2238 22.0354 13.6784 24.7229C13.9628 26.4042 14.5362 27.4047 15.499 28.275C15.7925 27.9735 16.7302 27.1146 17.4715 27.6514C18.1956 28.1768 17.8313 28.9957 17.2682 29.5634C17.3835 29.6365 17.5012 29.7107 17.6234 29.7872C19.348 30.862 20.8831 31.7483 20.8831 31.7483V14.977C17.974 14.977 15.9901 14.1717 15.9901 14.1717L13.4454 17.1596Z" fill="#19346F"/>
<path d="M17.2579 27.0952C17.2579 27.0952 13.7983 31.3908 13.4454 31.8831C13.2021 32.2223 13.1747 32.557 13.2432 32.6038C13.3083 32.6483 13.4157 32.6803 13.7206 32.2749C14.0256 31.8705 18.3692 26.6909 18.3692 26.6909L17.2579 27.0952Z" fill="#19346F"/>
<path d="M14.76 15.7354C14.76 15.7354 14.3614 15.2957 13.8714 14.7543L14.3237 14.35L13.9731 13.9605L13.5151 14.3614C12.8743 13.6533 12.2005 12.9097 12.0805 12.7727C11.8395 12.5008 11.554 12.5682 11.3827 12.7624C11.2114 12.9566 10.5638 13.7355 10.8767 14.4585C11.1565 15.1038 12.1513 15.0056 12.1993 14.832C12.245 14.6675 12.0406 14.6629 11.9812 14.6629C11.867 14.6629 11.6465 14.6858 11.4741 14.6093C11.2787 14.5224 11.1565 14.3568 11.136 14.1227C11.0926 13.6042 11.5289 13.2592 11.5289 13.2592L12.9611 14.8434L12.494 15.2511L12.8675 15.6475L13.3221 15.242L14.3854 16.4184L14.76 15.7354Z" fill="#19346F"/>
<path d="M28.3208 17.1596C28.3208 17.1596 27.0838 18.1167 27.1421 19.3308C27.2003 20.5449 28.5423 22.0354 28.0878 24.7229C27.8034 26.4042 27.23 27.4047 26.2672 28.275C25.9736 27.9735 25.0359 27.1146 24.2947 27.6514C23.5706 28.1768 23.9349 28.9957 24.498 29.5634C24.3826 29.6365 24.265 29.7107 24.1428 29.7872C22.4181 30.862 20.8831 31.7483 20.8831 31.7483V14.977C23.7921 14.977 25.7761 14.1717 25.7761 14.1717L28.3208 17.1596Z" fill="#19346F"/>
<path d="M24.5083 27.0952C24.5083 27.0952 27.9678 31.3908 28.3208 31.8831C28.564 32.2223 28.5914 32.557 28.5229 32.6038C28.4578 32.6483 28.3504 32.6803 28.0455 32.2749C27.7405 31.8705 23.3969 26.6909 23.3969 26.6909L24.5083 27.0952Z" fill="#19346F"/>
<path d="M27.0061 15.7354C27.0061 15.7354 27.4047 15.2957 27.8947 14.7543L27.4424 14.35L27.7931 13.9605L28.2511 14.3614C28.8918 13.6533 29.5657 12.9097 29.6856 12.7727C29.9266 12.5008 30.2122 12.5682 30.3835 12.7624C30.5548 12.9566 31.2024 13.7355 30.8894 14.4585C30.6096 15.1038 29.6148 15.0056 29.5668 14.832C29.5212 14.6675 29.7256 14.6629 29.785 14.6629C29.8992 14.6629 30.1196 14.6858 30.2921 14.6093C30.4874 14.5224 30.6096 14.3568 30.6302 14.1227C30.6736 13.6042 30.2373 13.2592 30.2373 13.2592L28.805 14.8434L29.2722 15.2511L28.8987 15.6475L28.4441 15.242L27.3808 16.4184L27.0061 15.7354Z" fill="#19346F"/>
<path d="M25.8743 10.5546L24.8886 9.13715L23.5637 10.5546L22.1155 9.13715L20.8831 10.462L19.6507 9.13715L18.2025 10.5546L16.8776 9.13715L15.8919 10.5546L14.0736 9.13715L15.2294 13.37C15.2294 13.37 16.4607 14.1215 18.7907 14.4379C19.4109 14.5224 20.1087 14.5761 20.882 14.5761C21.6563 14.5761 22.353 14.5224 22.9732 14.4379C25.3044 14.1215 26.5345 13.37 26.5345 13.37L27.6903 9.13715L25.8743 10.5546Z" fill="#E8B312"/>
<path d="M20.4205 22.7413V24.3871C20.4205 25.0027 20.4353 25.4059 20.4639 25.5967C20.4924 25.7874 20.5712 25.929 20.698 26.0216C20.8248 26.1141 21.0635 26.1597 21.4142 26.1597H21.6746V26.4259H18.0882V26.1597H18.2961C18.6307 26.1597 18.8626 26.1175 18.9917 26.033C19.1207 25.9485 19.203 25.816 19.2372 25.6378C19.2715 25.4585 19.2898 25.0416 19.2898 24.3871V20.5472C19.2898 19.9236 19.2726 19.5216 19.2372 19.34C19.203 19.1595 19.1253 19.0339 19.0065 18.9642C18.8866 18.8945 18.6296 18.8603 18.2333 18.8603H18.0894V18.5941L19.0705 18.5599C19.8563 18.5325 20.4673 18.5199 20.907 18.5199C21.7157 18.5199 22.3382 18.5839 22.7745 18.7106C23.2108 18.8374 23.5694 19.0624 23.8481 19.3856C24.1268 19.7089 24.2673 20.1166 24.2673 20.61C24.2673 21.0372 24.1725 21.4141 23.9817 21.7419C23.791 22.0697 23.518 22.3176 23.1616 22.4866C22.8053 22.6556 22.1794 22.7401 21.2817 22.7401H20.4205V22.7413ZM20.4205 22.4535H20.9801C21.4301 22.4535 21.7945 22.4078 22.0709 22.3176C22.3484 22.2273 22.5792 22.0377 22.7642 21.7488C22.9492 21.4598 23.0417 21.1046 23.0417 20.6808C23.0417 20.0344 22.883 19.5593 22.5654 19.2577C22.2479 18.9551 21.7328 18.8043 21.0213 18.8043C20.7597 18.8043 20.5598 18.8123 20.4205 18.8271V22.4535Z" fill="#E8B312"/>
<path d="M11.0869 5.69592C11.4923 5.43437 11.8498 5.34757 12.1319 5.38411C12.3386 5.41153 12.5157 5.53259 12.6459 5.7359C12.7841 5.95062 12.8206 6.1859 12.7578 6.41662C12.6585 6.77868 12.4837 6.94429 12.0497 7.22412C11.9446 7.29265 11.8772 7.33034 11.7619 7.39202L12.2301 8.11842C12.4289 8.42681 12.5157 8.44508 12.8549 8.24977L12.9052 8.3263L11.7699 9.05842L11.7196 8.98189C12.02 8.75346 12.0154 8.69293 11.7904 8.34457L10.6677 6.60507C10.4747 6.30469 10.4027 6.28299 10.0863 6.45203L10.0361 6.37436L11.0869 5.69592ZM11.6568 7.22983C11.755 7.17729 11.8304 7.13503 11.9115 7.08249C12.3581 6.79467 12.4517 6.40634 12.2164 6.04199C11.9286 5.59541 11.5803 5.59084 11.0286 5.94605C10.911 6.02143 10.9098 6.07397 10.9806 6.18362L11.6568 7.22983Z" fill="#0B2963"/>
<path d="M16.6994 6.58107L15.1232 5.55998L14.8719 5.65821L15.1826 6.54109C15.3048 6.88716 15.3779 6.92257 15.7365 6.82206L15.7674 6.90886L14.511 7.35088L14.4802 7.26407C14.8125 7.11674 14.84 7.05049 14.6995 6.6496L14.0165 4.70565C13.8977 4.36872 13.8429 4.32646 13.4819 4.4224L13.4511 4.3356L14.6892 3.90044C15.1221 3.74853 15.483 3.74396 15.7354 3.83419C15.9284 3.90386 16.0803 4.10146 16.15 4.30247C16.2893 4.6988 16.1272 5.05173 15.5881 5.33841L16.9038 6.16989C17.0946 6.2921 17.2008 6.28525 17.4075 6.23385L17.4383 6.32066L16.6994 6.58107ZM14.8125 5.49031C15.2466 5.32813 15.3939 5.24018 15.5641 5.05173C15.6966 4.90325 15.7217 4.66911 15.6406 4.44182C15.4967 4.03178 15.1575 3.92671 14.5932 4.1243C14.4379 4.17912 14.3728 4.23737 14.4288 4.39727L14.8125 5.49031Z" fill="#0B2963"/>
<path d="M18.127 6.2442L18.1145 6.15283C18.5142 6.08316 18.5679 6.01691 18.5176 5.64457L18.2287 3.5453C18.1761 3.16725 18.1145 3.13755 17.7044 3.16953L17.6919 3.07816L19.1116 2.88285L19.1241 2.97422C18.7255 3.04846 18.6661 3.11471 18.7164 3.47905L19.0053 5.57833C19.0544 5.93696 19.1413 5.99864 19.5353 5.95866L19.5479 6.05004L18.127 6.2442Z" fill="#0B2963"/>
<path d="M23.8081 3.06423C23.6243 3.07108 23.5512 3.08022 23.4849 3.12933C23.3878 3.20471 23.3319 3.3075 23.3056 3.68784L23.1331 6.18116L23.0463 6.17545L21.107 3.38517L20.9767 5.25259C20.9425 5.74828 21.0133 5.83509 21.3811 5.91389L21.3742 6.00527L20.2481 5.9276L20.2549 5.83623C20.6524 5.82024 20.73 5.75285 20.7654 5.23774L20.9128 3.12019C20.7677 2.91118 20.6992 2.8495 20.4639 2.83237L20.4708 2.741L21.2886 2.7981L22.9858 5.25259L23.0989 3.61589C23.116 3.37032 23.1069 3.22413 23.0406 3.13732C22.9652 3.04024 22.8796 3.02425 22.6694 2.98542L22.6751 2.89405L23.8161 2.97285L23.8081 3.06423Z" fill="#0B2963"/>
<path d="M27.2026 6.73857C26.8097 7.02753 26.298 7.07893 25.7589 6.89618C25.3432 6.7557 24.9948 6.47473 24.8178 6.12409C24.6316 5.75517 24.6133 5.28575 24.7664 4.83346C24.9217 4.3766 25.2004 4.0488 25.5602 3.84435C25.9622 3.61935 26.4065 3.60107 26.8314 3.74499C27.0096 3.80552 27.1866 3.88547 27.3522 3.9974C27.439 4.05794 27.5624 4.16073 27.6401 4.187C27.7269 4.21669 27.8228 4.18814 27.8833 4.10134L27.9747 4.13218L27.664 5.18295L27.559 5.14755C27.5887 4.878 27.5658 4.72153 27.4927 4.55934C27.3648 4.27609 27.1718 4.06365 26.8748 3.96314C26.185 3.729 25.5887 4.14931 25.3215 4.93968C25.1513 5.44222 25.1444 5.83741 25.2804 6.1435C25.4083 6.42676 25.6676 6.64148 25.9828 6.7477C26.394 6.88704 26.6921 6.83565 27.1444 6.62663L27.2026 6.73857Z" fill="#0B2963"/>
<path d="M29.8981 8.99092L27.7086 7.58721L27.7577 7.50955C28.0832 7.69001 28.1574 7.6626 28.3584 7.35079L29.4937 5.58045C29.6868 5.28007 29.6765 5.18755 29.383 4.97626L29.4321 4.89859L31.5839 6.27945L31.2275 6.87109L31.1259 6.80598C31.2995 6.40166 31.2447 6.28059 30.7741 5.97792L30.2418 5.63642C30.1276 5.56332 30.0899 5.56104 30.0054 5.69124L29.4321 6.58441L30.0454 6.97731C30.3949 7.20117 30.5 7.17147 30.7547 6.88137L30.8483 6.94076L30.2384 7.89103L30.1448 7.83164C30.3149 7.45929 30.2875 7.36792 29.938 7.14292L29.3247 6.75002L28.6919 7.73684C28.5823 7.90702 28.6794 7.99839 28.9798 8.19141L29.126 8.28507C29.7062 8.65741 29.9495 8.66426 30.4075 8.35131L30.5217 8.42441L29.8981 8.99092Z" fill="#0B2963"/>
<path d="M20.8831 0C9.34965 0 0 9.34965 0 20.8831C0 32.4165 9.34965 41.7662 20.8831 41.7662C32.4165 41.7662 41.7662 32.4165 41.7662 20.8831C41.7662 9.34965 32.4165 0 20.8831 0ZM20.8831 40.519C10.0384 40.519 1.24723 31.7278 1.24723 20.8831C1.24723 10.0384 10.0384 1.24723 20.8831 1.24723C31.7278 1.24723 40.519 10.0384 40.519 20.8831C40.519 31.7278 31.7278 40.519 20.8831 40.519Z" fill="#19346F"/>
<path d="M4.66229 29.1259L4.74453 29.0859C4.81991 29.2423 4.84275 29.2686 4.89872 29.3063C4.93298 29.3326 4.99352 29.336 5.03235 29.3177C5.09745 29.2869 5.20025 29.2001 5.29733 29.0893L5.62056 28.7147L5.07461 27.5748L4.48298 27.6125C4.41559 27.6182 4.33335 27.6365 4.28196 27.6605C4.14718 27.7256 4.14947 27.8421 4.24884 28.0511L4.1666 28.0911L3.752 27.2253L3.83423 27.1853C3.98157 27.4252 4.09122 27.4206 4.82334 27.3852L7.37605 27.2653L7.41716 27.3521L5.48007 29.5953C5.25507 29.8523 5.19339 29.9573 5.27563 30.196L5.19339 30.236L4.66229 29.1259ZM6.72616 27.4903L5.29048 27.5622L5.77132 28.5673L6.72616 27.4903Z" fill="#0B2963"/>
<path d="M7.81237 33.545L7.8809 33.4833C8.15387 33.7506 8.24638 33.738 8.54449 33.4707L10.1549 32.0213L7.28127 32.9533L7.23558 32.9031L8.3903 30.2282L6.96261 31.5131C6.56856 31.8683 6.55486 31.9837 6.789 32.2726L6.72047 32.3343L5.96551 31.4948L6.03404 31.4331C6.323 31.7118 6.41894 31.7164 6.81984 31.3555L8.24638 30.0705C8.51936 29.825 8.52393 29.737 8.27722 29.4264L8.34575 29.3647L8.98421 30.0751L7.93001 32.5239L10.4427 31.6958L11.0846 32.4097L11.0161 32.4714C10.7797 32.2167 10.6712 32.2178 10.4016 32.4599L8.83345 33.8716C8.57875 34.1012 8.56619 34.2097 8.78434 34.4872L8.71581 34.5489L7.81237 33.545Z" fill="#0B2963"/>
<path d="M12.4712 35.0936C12.7121 35.3084 12.7761 35.4511 12.8286 35.6316C12.8846 35.8326 12.8469 36.0473 12.7338 36.2267C12.4483 36.6801 11.8921 36.7121 11.3004 36.3397L9.92416 35.474L9.97327 35.3963C10.3011 35.5916 10.4119 35.5699 10.6072 35.2593L11.7299 33.4741C11.9332 33.1508 11.8944 33.0766 11.5768 32.847L11.626 32.7694L12.7704 33.4889C13.4774 33.9332 13.6841 34.4118 13.4111 34.8447C13.3061 35.0125 13.1347 35.1382 12.976 35.1645C12.8241 35.1884 12.7213 35.1702 12.4757 35.0891L12.4712 35.0936ZM10.9418 35.6487C10.8539 35.7881 10.8916 35.8737 11.0789 35.9914C11.4215 36.2072 11.5757 36.2803 11.8555 36.2347C12.0143 36.2084 12.1548 36.1033 12.2656 35.9274C12.3889 35.731 12.4266 35.5436 12.3489 35.37C12.2062 35.0525 12.0406 34.9714 11.5689 34.6516L10.9418 35.6487ZM12.0474 34.7247C12.4597 34.984 12.7658 34.9429 12.9794 34.6037C13.1953 34.261 13.0891 33.9035 12.6036 33.5974L12.4357 33.4923C12.3661 33.4489 12.3147 33.4672 12.2553 33.5609L11.6716 34.4883L12.0474 34.7247Z" fill="#0B2963"/>
<path d="M17.9021 35.7663C17.5035 35.6807 17.4236 35.7766 17.2842 36.2129L16.9119 37.3859C16.7703 37.8325 16.6503 38.0678 16.3682 38.2368C16.1055 38.3967 15.756 38.4115 15.3323 38.2779C14.9965 38.1717 14.7612 38.0209 14.6173 37.8188C14.4243 37.5504 14.4071 37.1906 14.5613 36.7029L15.0136 35.2775C15.1118 34.9691 15.0764 34.9029 14.7224 34.7601L14.7498 34.6733L16.0518 35.0856L16.0244 35.1735C15.6464 35.089 15.5778 35.1279 15.4693 35.4728L15.0136 36.9073C14.8994 37.266 14.8526 37.4784 14.9794 37.7171C15.0719 37.8884 15.2398 38.0278 15.5025 38.1112C15.7971 38.2048 16.0861 38.1854 16.2871 38.062C16.4973 37.9261 16.5738 37.748 16.6926 37.3756L17.0763 36.1661C17.2271 35.6921 17.1986 35.5722 16.8342 35.4305L16.8616 35.3437L17.9284 35.6818L17.9021 35.7663Z" fill="#0B2963"/>
<path d="M20.9288 39.1061L18.3372 38.9462L18.343 38.8548C18.7005 38.8571 18.7678 38.784 18.7907 38.4185L18.9186 36.3432C18.9414 35.972 18.9026 35.9023 18.528 35.8498L18.5337 35.7584L19.8963 35.8418L19.8906 35.9332C19.4942 35.9332 19.4326 35.9925 19.4097 36.3626L19.2727 38.5978C19.2612 38.7805 19.3412 38.8194 19.693 38.8411L20.0299 38.8616C20.4205 38.8856 20.6855 38.8148 20.8625 38.6184C20.9299 38.5407 20.9996 38.4379 21.0864 38.2746L21.212 38.2826L20.9288 39.1061Z" fill="#0B2963"/>
<path d="M24.6043 38.6924L24.5883 38.6022C24.7596 38.5714 24.7904 38.5554 24.8418 38.512C24.8761 38.4857 24.8955 38.4286 24.8875 38.3863C24.8749 38.3155 24.8178 38.1933 24.7367 38.0711L24.4603 37.6599L23.2165 37.8872L23.0966 38.4686C23.0841 38.5348 23.0795 38.6193 23.0909 38.6753C23.1172 38.8227 23.2314 38.8512 23.4587 38.8089L23.4747 38.8992L22.5301 39.0716L22.5141 38.9814C22.7837 38.9026 22.8088 38.7952 22.9676 38.0791L23.5226 35.5847L23.6174 35.5675L25.2724 38.0266C25.462 38.311 25.5465 38.3978 25.7978 38.3818L25.8138 38.472L24.6043 38.6924ZM23.5683 36.2734L23.2611 37.6782L24.3576 37.4783L23.5683 36.2734Z" fill="#0B2963"/>
<path d="M28.8611 33.795C28.7035 33.8909 28.6452 33.9355 28.6109 34.0097C28.563 34.1228 28.5653 34.2393 28.7297 34.5842L29.8034 36.8411L29.7245 36.8788L26.6647 35.4008L27.4688 37.0912C27.6824 37.5401 27.7875 37.5812 28.1461 37.4693L28.1849 37.5515L27.165 38.0369L27.125 37.9547C27.4642 37.7457 27.4985 37.6486 27.2758 37.1826L26.3655 35.2649C26.137 35.1541 26.0468 35.1336 25.8332 35.2352L25.7933 35.153L26.5345 34.8001L29.2174 36.1044L28.5127 34.623C28.4065 34.4003 28.3277 34.2781 28.2272 34.2358C28.1141 34.1879 28.0307 34.2164 27.8286 34.2861L27.7886 34.2027L28.8211 33.7116L28.8611 33.795Z" fill="#0B2963"/>
<path d="M33.2698 33.5243C33.3109 34.0108 33.087 34.4734 32.6496 34.8378C32.3126 35.1187 31.8912 35.2684 31.4994 35.2364C31.0882 35.2021 30.6771 34.9725 30.3721 34.6059C30.0637 34.2347 29.9301 33.8258 29.9438 33.4124C29.9621 32.9521 30.1791 32.5637 30.524 32.2771C30.6691 32.1571 30.829 32.0486 31.0117 31.9652C31.1077 31.923 31.2596 31.8716 31.3235 31.8191C31.3943 31.7608 31.4195 31.6637 31.3772 31.5666L31.4515 31.505L32.1859 32.3193L32.1002 32.3901C31.8855 32.2234 31.7404 32.1617 31.5645 32.1389C31.2561 32.1 30.974 32.1537 30.733 32.3536C30.1734 32.8196 30.2202 33.5471 30.7536 34.1879C31.0928 34.5956 31.4263 34.8081 31.7587 34.8515C32.0671 34.8903 32.3846 34.7818 32.6416 34.5694C32.9751 34.2918 33.087 34.0108 33.1453 33.5163L33.2698 33.5243Z" fill="#0B2963"/>
<path d="M36.1686 30.8082L34.6118 32.8915L34.5387 32.8366C34.742 32.5248 34.7203 32.4483 34.4222 32.2256L32.7364 30.9669C32.4509 30.7534 32.3572 30.7568 32.1253 31.0343L32.0522 30.9795L33.5827 28.9305L34.147 29.328L34.075 29.425C33.6844 29.2229 33.5599 29.2686 33.2241 29.7174L32.846 30.2234C32.7649 30.3319 32.7604 30.3707 32.8837 30.4633L33.7346 31.0983L34.1709 30.5146C34.4199 30.1823 34.3971 30.0749 34.1264 29.8008L34.1926 29.7117L35.0972 30.3879L35.031 30.477C34.6712 30.2805 34.5775 30.3011 34.3297 30.6334L33.8934 31.2171L34.8322 31.9184C34.9944 32.0394 35.0915 31.9492 35.3051 31.6637L35.409 31.5243C35.8225 30.9715 35.8453 30.7305 35.5655 30.2508L35.6466 30.1423L36.1686 30.8082Z" fill="#0B2963"/>
<path d="M35.7722 26.6737C35.5552 26.6394 35.4181 26.6371 35.2776 26.6691C35.0104 26.7342 34.766 26.8895 34.6483 27.1534C34.5261 27.4263 34.6255 27.6776 34.8676 27.7861C35.1669 27.9209 35.4981 27.6776 35.9744 27.3361C36.4563 26.9923 36.8093 26.8907 37.1439 27.0403C37.6373 27.2619 37.7938 27.7975 37.5642 28.3081C37.4809 28.4931 37.3735 28.6507 37.2296 28.7821C37.1565 28.8506 37.1097 28.9191 37.088 28.9671C37.0583 29.0333 37.0857 29.1144 37.1782 29.1556L37.1348 29.2526L36.1445 28.9614L36.1879 28.8643C36.8116 28.9009 37.1862 28.725 37.3746 28.3069C37.5128 27.9986 37.4066 27.6925 37.1165 27.5623C36.9623 27.4926 36.8413 27.4914 36.711 27.5337C36.4746 27.6125 36.1445 27.8295 35.8681 28.0442C35.4787 28.3458 35.1429 28.364 34.8699 28.2418C34.3902 28.026 34.2474 27.5657 34.4427 27.1305C34.5238 26.9501 34.6015 26.8473 34.7465 26.7113C34.8174 26.6474 34.8665 26.5857 34.8859 26.5412C34.919 26.4658 34.8882 26.3938 34.7991 26.3333L34.8402 26.2408L35.8213 26.5652L35.7722 26.6737Z" fill="#0B2963"/>
</svg>
